<mxfile host="app.diagrams.net" modified="2023-12-16T04:29:54.061Z" agent="Mozilla/5.0 (Windows NT 10.0; Win64; x64) AppleWebKit/537.36 (KHTML, like Gecko) Chrome/120.0.0.0 Safari/537.36" etag="E7FvKERtgsK1qv3Eii9Q" version="22.1.11" type="github">
  <diagram id="C5RBs43oDa-KdzZeNtuy" name="Page-1">
    <mxGraphModel dx="880" dy="468" grid="1" gridSize="10" guides="1" tooltips="1" connect="1" arrows="1" fold="1" page="1" pageScale="1" pageWidth="827" pageHeight="1169" math="0" shadow="0">
      <root>
        <mxCell id="WIyWlLk6GJQsqaUBKTNV-0" />
        <mxCell id="WIyWlLk6GJQsqaUBKTNV-1" parent="WIyWlLk6GJQsqaUBKTNV-0" />
        <mxCell id="yjTNKrqDX9OZpZqWXkif-2" value="" style="edgeStyle=orthogonalEdgeStyle;rounded=0;orthogonalLoop=1;jettySize=auto;html=1;" parent="WIyWlLk6GJQsqaUBKTNV-1" source="yjTNKrqDX9OZpZqWXkif-0" target="yjTNKrqDX9OZpZqWXkif-1" edge="1">
          <mxGeometry relative="1" as="geometry" />
        </mxCell>
        <mxCell id="yjTNKrqDX9OZpZqWXkif-0" value="START" style="strokeWidth=2;html=1;shape=mxgraph.flowchart.terminator;whiteSpace=wrap;" parent="WIyWlLk6GJQsqaUBKTNV-1" vertex="1">
          <mxGeometry x="100" y="80" width="80" height="40" as="geometry" />
        </mxCell>
        <mxCell id="yjTNKrqDX9OZpZqWXkif-4" value="" style="edgeStyle=orthogonalEdgeStyle;rounded=0;orthogonalLoop=1;jettySize=auto;html=1;" parent="WIyWlLk6GJQsqaUBKTNV-1" source="yjTNKrqDX9OZpZqWXkif-1" target="yjTNKrqDX9OZpZqWXkif-3" edge="1">
          <mxGeometry relative="1" as="geometry" />
        </mxCell>
        <mxCell id="yjTNKrqDX9OZpZqWXkif-1" value="BILANGAN&lt;br&gt;POSITIF" style="shape=parallelogram;html=1;strokeWidth=2;perimeter=parallelogramPerimeter;whiteSpace=wrap;rounded=1;arcSize=12;size=0.23;" parent="WIyWlLk6GJQsqaUBKTNV-1" vertex="1">
          <mxGeometry x="80" y="170" width="120" height="60" as="geometry" />
        </mxCell>
        <mxCell id="yjTNKrqDX9OZpZqWXkif-6" value="TRUE" style="edgeStyle=orthogonalEdgeStyle;rounded=0;orthogonalLoop=1;jettySize=auto;html=1;" parent="WIyWlLk6GJQsqaUBKTNV-1" source="yjTNKrqDX9OZpZqWXkif-3" target="yjTNKrqDX9OZpZqWXkif-5" edge="1">
          <mxGeometry relative="1" as="geometry" />
        </mxCell>
        <mxCell id="yjTNKrqDX9OZpZqWXkif-8" value="FALSE" style="edgeStyle=orthogonalEdgeStyle;rounded=0;orthogonalLoop=1;jettySize=auto;html=1;" parent="WIyWlLk6GJQsqaUBKTNV-1" source="yjTNKrqDX9OZpZqWXkif-3" target="yjTNKrqDX9OZpZqWXkif-7" edge="1">
          <mxGeometry relative="1" as="geometry" />
        </mxCell>
        <mxCell id="yjTNKrqDX9OZpZqWXkif-3" value="BIL%2" style="rhombus;whiteSpace=wrap;html=1;strokeWidth=2;rounded=1;arcSize=12;" parent="WIyWlLk6GJQsqaUBKTNV-1" vertex="1">
          <mxGeometry x="100" y="280" width="80" height="80" as="geometry" />
        </mxCell>
        <mxCell id="yjTNKrqDX9OZpZqWXkif-11" value="" style="edgeStyle=orthogonalEdgeStyle;rounded=0;orthogonalLoop=1;jettySize=auto;html=1;" parent="WIyWlLk6GJQsqaUBKTNV-1" source="yjTNKrqDX9OZpZqWXkif-5" target="yjTNKrqDX9OZpZqWXkif-9" edge="1">
          <mxGeometry relative="1" as="geometry" />
        </mxCell>
        <mxCell id="yjTNKrqDX9OZpZqWXkif-5" value="BILANGAN&lt;br&gt;GENAP" style="shape=parallelogram;perimeter=parallelogramPerimeter;whiteSpace=wrap;html=1;fixedSize=1;strokeWidth=2;rounded=1;arcSize=12;" parent="WIyWlLk6GJQsqaUBKTNV-1" vertex="1">
          <mxGeometry x="240" y="290" width="120" height="60" as="geometry" />
        </mxCell>
        <mxCell id="yjTNKrqDX9OZpZqWXkif-10" value="" style="edgeStyle=orthogonalEdgeStyle;rounded=0;orthogonalLoop=1;jettySize=auto;html=1;" parent="WIyWlLk6GJQsqaUBKTNV-1" source="yjTNKrqDX9OZpZqWXkif-7" target="yjTNKrqDX9OZpZqWXkif-9" edge="1">
          <mxGeometry relative="1" as="geometry" />
        </mxCell>
        <mxCell id="yjTNKrqDX9OZpZqWXkif-7" value="BILANGAN&lt;br&gt;GANJIL" style="shape=parallelogram;perimeter=parallelogramPerimeter;whiteSpace=wrap;html=1;fixedSize=1;strokeWidth=2;rounded=1;arcSize=12;" parent="WIyWlLk6GJQsqaUBKTNV-1" vertex="1">
          <mxGeometry x="80" y="450" width="120" height="60" as="geometry" />
        </mxCell>
        <mxCell id="yjTNKrqDX9OZpZqWXkif-9" value="END" style="strokeWidth=2;html=1;shape=mxgraph.flowchart.terminator;whiteSpace=wrap;" parent="WIyWlLk6GJQsqaUBKTNV-1" vertex="1">
          <mxGeometry x="250" y="450" width="100" height="60" as="geometry" />
        </mxCell>
        <mxCell id="S1kVWRlpIQlhSgMfIQil-2" value="" style="edgeStyle=orthogonalEdgeStyle;rounded=0;orthogonalLoop=1;jettySize=auto;html=1;" parent="WIyWlLk6GJQsqaUBKTNV-1" source="S1kVWRlpIQlhSgMfIQil-0" target="S1kVWRlpIQlhSgMfIQil-1" edge="1">
          <mxGeometry relative="1" as="geometry" />
        </mxCell>
        <mxCell id="S1kVWRlpIQlhSgMfIQil-0" value="START" style="strokeWidth=2;html=1;shape=mxgraph.flowchart.terminator;whiteSpace=wrap;" parent="WIyWlLk6GJQsqaUBKTNV-1" vertex="1">
          <mxGeometry x="370" y="560" width="100" height="60" as="geometry" />
        </mxCell>
        <mxCell id="S1kVWRlpIQlhSgMfIQil-4" value="" style="edgeStyle=orthogonalEdgeStyle;rounded=0;orthogonalLoop=1;jettySize=auto;html=1;" parent="WIyWlLk6GJQsqaUBKTNV-1" source="S1kVWRlpIQlhSgMfIQil-1" target="S1kVWRlpIQlhSgMfIQil-3" edge="1">
          <mxGeometry relative="1" as="geometry" />
        </mxCell>
        <mxCell id="S1kVWRlpIQlhSgMfIQil-1" value="Jika bil %2=0, maka genap&lt;br&gt;Jika bil %2=/=0, maka ganjil" style="whiteSpace=wrap;html=1;strokeWidth=2;" parent="WIyWlLk6GJQsqaUBKTNV-1" vertex="1">
          <mxGeometry x="330" y="650" width="180" height="60" as="geometry" />
        </mxCell>
        <mxCell id="S1kVWRlpIQlhSgMfIQil-7" value="" style="edgeStyle=orthogonalEdgeStyle;rounded=0;orthogonalLoop=1;jettySize=auto;html=1;" parent="WIyWlLk6GJQsqaUBKTNV-1" source="S1kVWRlpIQlhSgMfIQil-3" target="S1kVWRlpIQlhSgMfIQil-6" edge="1">
          <mxGeometry relative="1" as="geometry" />
        </mxCell>
        <mxCell id="S1kVWRlpIQlhSgMfIQil-3" value="Input Nilai Bilangan 7" style="shape=parallelogram;perimeter=parallelogramPerimeter;whiteSpace=wrap;html=1;fixedSize=1;strokeWidth=2;" parent="WIyWlLk6GJQsqaUBKTNV-1" vertex="1">
          <mxGeometry x="350" y="740" width="140" height="40" as="geometry" />
        </mxCell>
        <mxCell id="S1kVWRlpIQlhSgMfIQil-9" value="Tidak" style="edgeStyle=orthogonalEdgeStyle;rounded=0;orthogonalLoop=1;jettySize=auto;html=1;" parent="WIyWlLk6GJQsqaUBKTNV-1" source="S1kVWRlpIQlhSgMfIQil-6" target="S1kVWRlpIQlhSgMfIQil-8" edge="1">
          <mxGeometry relative="1" as="geometry" />
        </mxCell>
        <mxCell id="S1kVWRlpIQlhSgMfIQil-11" value="Ya" style="edgeStyle=orthogonalEdgeStyle;rounded=0;orthogonalLoop=1;jettySize=auto;html=1;" parent="WIyWlLk6GJQsqaUBKTNV-1" source="S1kVWRlpIQlhSgMfIQil-6" target="S1kVWRlpIQlhSgMfIQil-10" edge="1">
          <mxGeometry relative="1" as="geometry" />
        </mxCell>
        <mxCell id="S1kVWRlpIQlhSgMfIQil-6" value="Bilangan mod 6%2=0" style="rhombus;whiteSpace=wrap;html=1;strokeWidth=2;" parent="WIyWlLk6GJQsqaUBKTNV-1" vertex="1">
          <mxGeometry x="340" y="820" width="160" height="80" as="geometry" />
        </mxCell>
        <mxCell id="S1kVWRlpIQlhSgMfIQil-8" value="Bilangan Ganjil" style="shape=parallelogram;perimeter=parallelogramPerimeter;whiteSpace=wrap;html=1;fixedSize=1;strokeWidth=2;" parent="WIyWlLk6GJQsqaUBKTNV-1" vertex="1">
          <mxGeometry x="160" y="830" width="120" height="60" as="geometry" />
        </mxCell>
        <mxCell id="S1kVWRlpIQlhSgMfIQil-10" value="Bilangan Genap" style="shape=parallelogram;perimeter=parallelogramPerimeter;whiteSpace=wrap;html=1;fixedSize=1;strokeWidth=2;" parent="WIyWlLk6GJQsqaUBKTNV-1" vertex="1">
          <mxGeometry x="560" y="830" width="120" height="60" as="geometry" />
        </mxCell>
        <mxCell id="S1kVWRlpIQlhSgMfIQil-12" value="END" style="strokeWidth=2;html=1;shape=mxgraph.flowchart.terminator;whiteSpace=wrap;" parent="WIyWlLk6GJQsqaUBKTNV-1" vertex="1">
          <mxGeometry x="370" y="930" width="100" height="60" as="geometry" />
        </mxCell>
        <mxCell id="S1kVWRlpIQlhSgMfIQil-14" style="edgeStyle=orthogonalEdgeStyle;rounded=0;orthogonalLoop=1;jettySize=auto;html=1;exitX=0.5;exitY=1;exitDx=0;exitDy=0;entryX=0;entryY=0.5;entryDx=0;entryDy=0;entryPerimeter=0;" parent="WIyWlLk6GJQsqaUBKTNV-1" source="S1kVWRlpIQlhSgMfIQil-8" target="S1kVWRlpIQlhSgMfIQil-12" edge="1">
          <mxGeometry relative="1" as="geometry">
            <Array as="points">
              <mxPoint x="220" y="960" />
            </Array>
          </mxGeometry>
        </mxCell>
        <mxCell id="S1kVWRlpIQlhSgMfIQil-15" style="edgeStyle=orthogonalEdgeStyle;rounded=0;orthogonalLoop=1;jettySize=auto;html=1;exitX=0.5;exitY=1;exitDx=0;exitDy=0;entryX=1;entryY=0.5;entryDx=0;entryDy=0;entryPerimeter=0;" parent="WIyWlLk6GJQsqaUBKTNV-1" source="S1kVWRlpIQlhSgMfIQil-10" target="S1kVWRlpIQlhSgMfIQil-12" edge="1">
          <mxGeometry relative="1" as="geometry" />
        </mxCell>
      </root>
    </mxGraphModel>
  </diagram>
</mxfile>
